#!OML:ASF I:\Actors\actors\Patient Classification 1\Patient 1\Session 1\Subject1.ASF
:FULLY-SPECIFIED
:DEGREES
1847
root -0.0309362 17.4813 8.64746 9.80164 26.7778 -6.67696
lowerback 5.29628 1.34089 3.22745
upperback -8.79123 2.48982 2.03795
thorax -12.4501 1.04671 0.00892036
lowerneck -7.18599 -9.72373 -5.28027
upperneck 32.5022 -13.6944 2.47185
head 12.5013 -6.36416 0.0848549
rclavicle -6.29278e-014 4.47266e-016
rhumerus -49.6981 3.28946 -79.9948
rradius 145.411
rwrist -48.6505
rhand 69.2431 646.289
rfingers 7.12502
rthumb 73.92 -8.04693
lclavicle -6.29278e-014 4.47266e-016
lhumerus -54 -3.31752 91.9175
lradius 141.028
lwrist 56.4596
lhand 65.953 -8.61333
lfingers 7.12502
lthumb 74.7749 -422.912
rfemur 0.165289 20.8606 25.3456
rtibia 1.50678
rfoot -30.8572 -42.4864
rtoes 26.4639
lfemur -10.3095 -47.3654 -1.60196
ltibia -3.51155
lfoot -2.00548 35.8965
ltoes -21.7567
1848
root -0.0343708 17.4818 8.65299 10.0119 25.8089 -6.67768
lowerback 5.25496 1.31012 3.17431
upperback -8.76084 2.43996 2.07967
thorax -12.3939 1.03013 0.0930571
lowerneck -7.33228 -9.42031 -4.85365
upperneck 32.4929 -13.2286 2.14239
head 12.4377 -6.14934 -0.0447109
rclavicle -4.80282e-014 8.99501e-015
rhumerus -49.6893 3.92561 -78.1278
rradius 145.669
rwrist -47.585
rhand 69.2107 646.367
rfingers 7.12502
rthumb 73.9314 -8.07419
lclavicle -4.80282e-014 8.99501e-015
lhumerus -54.08 -3.79318 90.6751
lradius 141.286
lwrist 56.2569
lhand 66.2188 -8.67721
lfingers 7.12502
lthumb 74.7298 -423.937
rfemur -0.128337 21.1667 25.1636
rtibia 1.50209
rfoot -30.0016 -42.1853
rtoes 25.7543
lfemur -10.0618 -47.7359 -1.62273
ltibia -3.55454
lfoot -2.58558 37.1384
ltoes -20.4635
1849
root -0.0356226 17.4827 8.65692 10.2238 24.8457 -6.57239
lowerback 5.29106 1.29723 3.08938
upperback -8.74485 2.40505 2.02858
thorax -12.3982 1.01678 0.0897467
lowerneck -7.48687 -9.13829 -4.35892
upperneck 32.5864 -12.8287 1.8552
head 12.4237 -5.94716 -0.182644
rclavicle 2.82305e-014 -2.09221e-014
rhumerus -49.5606 4.00342 -76.1947
rradius 145.898
rwrist -46.8173
rhand 69.239 646.393
rfingers 7.12502
rthumb 73.9215 -7.95657
lclavicle 2.82305e-014 -2.09221e-014
lhumerus -54.1482 -4.2732 89.3346
lradius 141.621
lwrist 56.0994
lhand 66.4114 -8.86275
lfingers 7.12502
lthumb 74.6943 -424.815
rfemur -0.315473 21.516 24.8807
rtibia 1.36947
rfoot -29.1611 -41.9508
rtoes 25.1371
lfemur -9.71892 -48.2227 -1.84091
ltibia -3.60627
lfoot -3.04796 38.3949
ltoes -19.3807
1850
root -0.0387486 17.4854 8.65811 10.3865 23.8337 -6.41391
lowerback 5.50134 1.34561 2.97089
upperback -8.76143 2.45203 1.90771
thorax -12.5448 1.03914 0.0118295
lowerneck -7.52852 -8.91798 -3.94657
upperneck 32.7325 -12.553 1.70546
head 12.4353 -5.79293 -0.270221
rclavicle 1.07235e-015 -2.17421e-015
rhumerus -49.6842 3.48912 -74.3026
rradius 146.293
rwrist -46.3177
rhand 69.5328 646.091
rfingers 7.12502
rthumb 73.8156 -7.31098
lclavicle 1.07235e-015 -2.17421e-015
lhumerus -54.2504 -4.76664 87.9645
lradius 141.987
lwrist 56.0198
lhand 66.592 -9.02349
lfingers 7.12502
lthumb 74.659 -425.622
rfemur -0.45223 21.9457 24.5593
rtibia 1.25992
rfoot -28.3524 -41.7417
rtoes 24.5122
lfemur -9.2417 -48.7574 -2.21505
ltibia -3.66755
lfoot -3.53815 39.7295
ltoes -18.221
1851
root -0.0478917 17.492 8.65479 10.5337 22.8368 -6.26646
lowerback 6.10781 1.54005 3.19739
upperback -8.96238 2.73512 1.49697
thorax -13.1213 1.11454 -0.627807
lowerneck -7.2616 -8.8513 -3.61303
upperneck 32.768 -12.5953 1.90381
head 12.3861 -5.75483 -0.241054
rclavicle -1.80708e-014 -3.11098e-014
rhumerus -50.5379 2.30545 -72.898
rradius 146.932
rwrist -46.0467
rhand 69.7628 646.13
rfingers 7.12502
rthumb 73.7295 -6.53951
lclavicle -1.80708e-014 -3.11098e-014
lhumerus -54.5155 -5.76199 86.5483
lradius 142.294
lwrist 56.3503
lhand 66.8891 -9.05142
lfingers 7.12502
lthumb 74.5966 -426.706
rfemur -0.682824 22.478 24.2505
rtibia 1.294
rfoot -27.7184 -41.582
rtoes 23.8857
lfemur -8.84927 -48.9407 -2.53068
ltibia -3.73508
lfoot -3.75817 40.7536
ltoes -17.6096
1852
root -0.0568039 17.5 8.65563 10.6994 22.1099 -6.32567
lowerback 6.36896 1.58087 3.39046
upperback -8.99842 2.81028 1.34461
thorax -13.3089 1.11604 -0.92385
lowerneck -7.22037 -8.71686 -3.29371
upperneck 32.5415 -12.4922 2.02412
head 12.2641 -5.6674 -0.225712
rclavicle 9.83363e-014 3.07122e-014
rhumerus -50.9274 1.39357 -71.7623
rradius 147.564
rwrist -46.0855
rhand 69.2412 647.053
rfingers 7.12502
rthumb 73.9207 -7.28957
lclavicle 9.83363e-014 3.07122e-014
lhumerus -54.4194 -6.35528 85.4444
lradius 142.388
lwrist 56.8002
lhand 67.2498 -9.08454
lfingers 7.12502
lthumb 74.5137 -428.01
rfemur -1.00233 22.9058 24.1748
rtibia 1.34072
rfoot -27.2651 -41.4796
rtoes 23.2462
lfemur -8.79744 -48.3504 -2.43179
ltibia -3.83726
lfoot -3.62286 40.8406
ltoes -17.594
